<?xml version="1.0" standalone="no"?><svg xmlns="http://www.w3.org/2000/svg" viewBox="0 0 1440 320"><path fill="#a2d9ff" fill-opacity="1" d="M0,0L30,53.3C60,107,120,213,180,229.3C240,245,300,171,360,165.3C420,160,480,224,540,218.7C600,213,660,139,720,128C780,117,840,171,900,170.7C960,171,1020,117,1080,128C1140,139,1200,213,1260,208C1320,203,1380,117,1410,74.7L1440,32L1440,320L1410,320C1380,320,1320,320,1260,320C1200,320,1140,320,1080,320C1020,320,960,320,900,320C840,320,780,320,720,320C660,320,600,320,540,320C480,320,420,320,360,320C300,320,240,320,180,320C120,320,60,320,30,320L0,320Z"></path></svg>